<?xml version="1.0" encoding="UTF-8" standalone="no" ?>
<!DOCTYPE svg PUBLIC "-//W3C//DTD SVG 1.1//EN" "http://www.w3.org/Graphics/SVG/1.1/DTD/svg11.dtd">
<svg xmlns="http://www.w3.org/2000/svg" xmlns:xlink="http://www.w3.org/1999/xlink" version="1.1" width="1253.0523255813957" height="1489.3999999999999" viewBox="0 0 1253.0523255813957 1489.3999999999999" xml:space="preserve">
<desc>Created with Fabric.js 4.6.0</desc>
<defs>
</defs>
<g transform="matrix(1.11 0 0 1.26 616.27 734.52)" id="9MrNzC8NcTtXac5Ey6M6t"  >
<path style="stroke: rgb(42,161,161); stroke-width: 0; stroke-dasharray: none; stroke-linecap: butt; stroke-dashoffset: 0; stroke-linejoin: miter; stroke-miterlimit: 4; fill: rgb(255,255,255); fill-rule: nonzero; opacity: 1;" vector-effect="non-scaling-stroke"  transform=" translate(0, 0)" d="M -599.09172 -599.09172 L 599.09171 -599.09172 L 599.09171 599.09171 L -599.09172 599.09171 z" stroke-linecap="round" />
</g>
<g transform="matrix(0.8 0 0 0.8 590.94 441.63)" id="t4KuQLhhEqXh_GO30fLDr"  >
<path style="stroke: none; stroke-width: 1; stroke-dasharray: none; stroke-linecap: butt; stroke-dashoffset: 0; stroke-linejoin: miter; stroke-miterlimit: 4; fill: rgb(245,193,182); fill-rule: evenodd; opacity: 1;" vector-effect="non-scaling-stroke"  transform=" translate(-774.5, -359)" d="M 724.954254 220 C 724.954254 220 721.26343 301.153386 673.924004 329.799638 C 630.972611 355.790794 721.968632 506.610475 819.857852 497.613536 C 873.442212 492.688212 886 346.158072 886 346.158072 C 886 346.158072 842.733964 337.796917 858.715877 271.819367 L 724.954254 220 Z" stroke-linecap="round" />
</g>
<g transform="matrix(0.8 0 0 0.8 602.54 275.63)" id="iosWWyjLVgUtYLzF_up0B"  >
<path style="stroke: none; stroke-width: 1; stroke-dasharray: none; stroke-linecap: butt; stroke-dashoffset: 0; stroke-linejoin: miter; stroke-miterlimit: 4; fill: rgb(245,193,182); fill-rule: evenodd; opacity: 1;" vector-effect="non-scaling-stroke"  transform=" translate(0, 0)" d="M 14.33711 151.01564 C -49.12339 143.34069 -94.9223 101.61574999999999 -101.33535 32.39805999999999 C -119.78372 35.33495999999999 -124.13496 -12.73508000000001 -118.99694000000001 -28.177050000000015 C -113.85392000000002 -43.641030000000015 -97.06698 -34.59920000000002 -97.06698 -34.59920000000002 C -96.13776 -37.042780000000015 -95.34765 -39.60110000000002 -94.69666 -42.274160000000016 C -66.97469 -155.98557000000002 10.66980000000001 -151.47566 10.66980000000001 -151.47566 C 153.34435000000002 -144.04286000000002 119.91424 1.6201800000000048 111.76289000000001 40.26311999999999 C 103.61054000000001 78.91006999999999 75.68389000000002 158.42739999999998 14.33711000000001 151.01561999999998 z" stroke-linecap="round" />
</g>
<g transform="matrix(0.79 -0.14 0.14 0.79 315.38 720.16)" id="lJxFiyLBOt0CvVBbMjjNv"  >
<path style="stroke: none; stroke-width: 1; stroke-dasharray: none; stroke-linecap: butt; stroke-dashoffset: 0; stroke-linejoin: miter; stroke-miterlimit: 4; fill: rgb(245,193,182); fill-rule: evenodd; opacity: 1;" vector-effect="non-scaling-stroke"  transform=" translate(-164.04, -386.56)" d="M 105.050047 289.936251 C 33.5168788 376.727653 8.92577071 446.699768 31.2767231 499.852598 C 64.8031518 579.581843 146.951413 496.522302 192.490195 395.604271 C 222.849383 328.325583 260.283957 276.925705 304.793918 241.404634 L 105.050047 289.936251 Z" stroke-linecap="round" />
</g>
<g transform="matrix(0.8 0 0 0.8 555.62 699.18)" id="EhMy75o82t5s07lb291s2"  >
<path style="stroke: none; stroke-width: 1; stroke-dasharray: none; stroke-linecap: butt; stroke-dashoffset: 0; stroke-linejoin: miter; stroke-miterlimit: 4; fill: rgb(133,187,220); fill-rule: evenodd; opacity: 1;" vector-effect="non-scaling-stroke"  transform=" translate(-464.35, -361.2)" d="M 280.8551 41.1066 C 363.7551 15.4706 389.3011 14.0266 389.3011 14.0266 L 476.8081 32.8846 C 476.8081 32.8846 524.7691 95.9186 528.8791 152.1006 C 528.8791 152.1006 530.2491 78.1046 561.7671 27.4036 C 561.7671 27.4036 700.4791 26.1286 752.7731 80.7306 C 835.3711 166.9736 833.813167 318.3006 833.813167 318.3006 L 697.5221 332.3166 L 752.7731 255.388 C 752.7731 255.388 756.263179 568.804637 748.041179 649.652637 C 644 764.422821 270 675.591107 270 675.591107 C 270 675.591107 278.1151 416.25183 279.4851 345.3136 C 280.8551 274.37537 254.6201 283.9566 218.4531 371.8906 C 188.8861 443.7816 94.8851 294.7296 94.8851 294.7296 C 94.8851 294.7296 152.5811 80.7726 280.8551 41.1066 Z" stroke-linecap="round" />
</g>
<g transform="matrix(0.8 0 0 0.8 800.72 708.4)" id="_dizF5zJAu6HnZI8xpuKo"  >
<path style="stroke: none; stroke-width: 1; stroke-dasharray: none; stroke-linecap: butt; stroke-dashoffset: 0; stroke-linejoin: miter; stroke-miterlimit: 4; fill: rgb(252,235,236); fill-rule: evenodd; opacity: 1;" vector-effect="non-scaling-stroke"  transform=" translate(-770.72, -371.86)" d="M 704.0424 431.7121 C 704.0424 431.7121 771.3394 407.5801 839.7714 421.8301 C 839.7714 421.8301 838.8854 399.4921 839.5874 369.9961 C 840.1634 345.7711 853.4304 308.2791 805.5564 312.3171 C 749.8404 317.0161 725.9594 317.5081 701.7344 328.4671 C 701.7344 328.4671 695.9674 408.6411 704.0424 431.7121" stroke-linecap="round" />
</g>
<g transform="matrix(0.8 0 0 0.8 307.7 671.43)" id="QZIFF8dquHdhljhsqM0ue"  >
<path style="stroke: none; stroke-width: 1; stroke-dasharray: none; stroke-linecap: butt; stroke-dashoffset: 0; stroke-linejoin: miter; stroke-miterlimit: 4; fill: rgb(86,139,188); fill-rule: evenodd; opacity: 1;" vector-effect="non-scaling-stroke"  transform=" translate(-154.44, -325.64)" d="M 63.9394 341.7921 L 93.2847063 249.4471 C 93.2847063 249.4471 201.904517 226.7581 244.9394 320.6421 L 212.685338 404.2371 C 212.685338 404.2371 152.370466 315.2971 63.9394 341.7921" stroke-linecap="round" />
</g>
<g transform="matrix(0.8 0 0 0.8 511.29 447.91)" id="su4PgTRVFhMkgxwePjY7w"  >
<path style="stroke: none; stroke-width: 1; stroke-dasharray: none; stroke-linecap: butt; stroke-dashoffset: 0; stroke-linejoin: miter; stroke-miterlimit: 4; fill: rgb(86,139,188); fill-rule: evenodd; opacity: 1;" vector-effect="non-scaling-stroke"  transform=" translate(-70.93, -46.24)" d="M 52.6986 0.4875 C 52.6986 0.4875 -2.7084 19.2415 0.7016 24.3555 C 4.1106 29.4695 102.4766 94.8915 109.8506 91.9955 C 117.2246 89.0985 144.8776 36.6905 140.9276 31.4235 C 136.9766 26.1565 57.4346 -1.4785 52.6986 0.4875" stroke-linecap="round" />
</g>
<g transform="matrix(0.8 0 0 0.8 684.04 457.73)" id="6WqxsGqa6WKuOJjBve1B0"  >
<path style="stroke: none; stroke-width: 1; stroke-dasharray: none; stroke-linecap: butt; stroke-dashoffset: 0; stroke-linejoin: miter; stroke-miterlimit: 4; fill: rgb(86,139,188); fill-rule: evenodd; opacity: 1;" vector-effect="non-scaling-stroke"  transform=" translate(-624.87, -58.52)" d="M 650.6088 23.2834 C 650.6088 23.2834 698.2988 57.1534 693.5648 61.0734 C 688.8308 64.9934 575.8238 99.4234 569.5908 94.5314 C 563.3598 89.6394 551.9168 31.4994 557.2118 27.5884 C 562.5088 23.6774 646.6358 20.0404 650.6088 23.2834" stroke-linecap="round" />
</g>
<g transform="matrix(0.69 0.4 -0.4 0.69 355.74 757.92)" id="ojOYOuljCztujsPpKphQd"  >
<path style="stroke: none; stroke-width: 1; stroke-dasharray: none; stroke-linecap: butt; stroke-dashoffset: 0; stroke-linejoin: miter; stroke-miterlimit: 4; fill: rgb(245,193,182); fill-rule: evenodd; opacity: 1;" vector-effect="non-scaling-stroke"  transform=" translate(-214.5, -433.76)" d="M 123.259851 445.031349 C 166.893554 466.002349 153.233851 474.731349 174.524851 487.829349 C 195.815851 500.928349 228.449851 535.078349 239.694851 527.258349 C 250.938851 519.438349 247.765851 512.512349 236.068851 502.885349 C 224.372851 493.257349 188.169851 461.709349 192.145851 456.921349 C 196.122851 452.133349 257.341851 520.465349 275.349851 508.401349 C 293.357851 496.336349 254.631851 465.557349 235.864851 452.620349 C 217.098851 439.684349 206.592851 428.138349 212.609851 426.196349 C 218.626851 424.255349 289.502851 499.367349 303.228851 487.951349 C 316.956851 476.535349 291.560851 450.435349 272.692851 437.256349 C 253.825851 424.077349 224.797851 402.906349 224.797851 402.906349 C 224.797851 402.906349 262.223851 418.298349 291.053851 445.811349 C 319.883851 473.323349 326.829851 471.564349 330.441851 465.221349 C 334.053851 458.878349 304.306851 424.060349 304.306851 424.060349 C 304.306851 424.060349 305.316851 383.621349 266.957851 370.249349 C 228.598851 356.878349 199.545851 336.218349 159.169851 339.440349 C 118.793851 342.660349 106.355352 366.565153 106.355352 366.565153 C 106.355352 366.565153 79.6261472 424.060349 123.259851 445.031349 Z" stroke-linecap="round" />
</g>
<g transform="matrix(0.8 0 0 0.8 678.2 570.31)" id="XsfKTTGKQwbwVOH_Fjb6l"  >
<path style="stroke: none; stroke-width: 1; stroke-dasharray: none; stroke-linecap: butt; stroke-dashoffset: 0; stroke-linejoin: miter; stroke-miterlimit: 4; fill: rgb(86,139,188); fill-rule: evenodd; opacity: 1;" vector-effect="non-scaling-stroke"  transform=" translate(-617.57, -199.25)" d="M 662.9867 209.88 L 572.1647 209.88 C 568.4677 209.88 565.4707 206.884 565.4707 203.188 L 565.4707 195.319 C 565.4707 191.624 568.4677 188.627 572.1647 188.627 L 662.9867 188.627 C 666.6827 188.627 669.6787 191.624 669.6787 195.319 L 669.6787 203.188 C 669.6787 206.884 666.6827 209.88 662.9867 209.88" stroke-linecap="round" />
</g>
<g transform="matrix(0.8 0 0 0.8 665.05 817.05)" id="5f97U5-Xdthc1V7D5M2h3"  >
<path style="stroke: none; stroke-width: 1; stroke-dasharray: none; stroke-linecap: butt; stroke-dashoffset: 0; stroke-linejoin: miter; stroke-miterlimit: 4; fill: rgb(28,55,114); fill-rule: evenodd; opacity: 1;" vector-effect="non-scaling-stroke"  transform=" translate(-204.14, -333.29)" d="M 185.2874 372.4279 L 2.5724 321.7809 C 2.5724 321.7809 -8.7866 309.7899 24.6594 306.6349 C 58.1044 303.4799 407.5584 294.1429 407.5584 294.1429 L 185.2874 372.4279 Z" stroke-linecap="round" />
</g>
<g transform="matrix(0.8 0 0 0.8 878.01 699.18)" id="WZs9jbS_NXgl5q34ghbmp"  >
<path style="stroke: none; stroke-width: 1; stroke-dasharray: none; stroke-linecap: butt; stroke-dashoffset: 0; stroke-linejoin: miter; stroke-miterlimit: 4; fill: rgb(75,95,133); fill-rule: evenodd; opacity: 1;" vector-effect="non-scaling-stroke"  transform=" translate(-470.33, -185.95)" d="M 703.3129 371.8791 L 190.8269 371.8791 C 181.3339 371.8791 173.6369 364.1841 173.6369 354.6901 L 220.1609 17.2031 C 220.1609 7.7101 227.8559 0.0141 237.3489 0.0141 L 749.8349 0.0141 C 759.3289 0.0141 767.0249 7.7101 767.0249 17.2031 L 720.5009 354.6901 C 720.5009 364.1841 712.8059 371.8791 703.3129 371.8791" stroke-linecap="round" />
</g>
<g transform="matrix(-0.25 -0.76 -0.76 0.25 898.68 821.6)" id="5Gf5oCW4Bagh9koq2fYNF"  >
<path style="stroke: none; stroke-width: 1; stroke-dasharray: none; stroke-linecap: butt; stroke-dashoffset: 0; stroke-linejoin: miter; stroke-miterlimit: 4; fill: rgb(245,193,182); fill-rule: evenodd; opacity: 1;" vector-effect="non-scaling-stroke"  transform=" translate(-92.63, -72.19)" d="M 34.8019558 0.721228206 C 34.8019558 0.721228206 30.1385768 5.272 25.5025768 10.938 C 20.8665768 16.604 24.9875768 17.635 14.6855768 28.452 C 4.38357684 39.27 -14.1604232 66.57 18.2905768 108.294 C 50.7435768 150.018 61.5605768 146.411 74.9535768 139.2 C 88.3455768 131.988 89.8915768 126.838 115.131577 124.262 C 140.371577 121.687 164.581577 96.961 164.066577 90.78 L 163.551577 84.599 C 163.551577 84.599 186.730577 75.842 185.186577 66.055 C 183.640577 56.268 176.944577 57.298 176.944577 57.298 C 176.944577 57.298 181.580577 52.662 177.974577 44.42 C 174.368577 36.179 157.370577 37.724 137.795577 40.3 C 118.222577 42.875 67.7415768 53.177 64.6505768 51.117 C 61.5605768 49.057 62.5905768 45.966 74.4375768 44.42 C 86.2855768 42.875 134.190577 42.36 134.190577 28.967 C 134.190577 15.574 119.767577 12.999 91.9515768 13.514 C 64.1355768 14.029 58.9845768 12.483 52.2885768 15.06 L 39.9277765 16.4968824 C 36.5105627 5.9797796 34.8019558 0.721228206 34.8019558 0.721228206 Z" stroke-linecap="round" />
</g>
<g transform="matrix(-0.25 -0.76 -0.76 0.25 893.74 804.23)" id="jMvK14PpIJz0dSIjG0akb"  >
<path style="stroke: none; stroke-width: 1; stroke-dasharray: none; stroke-linecap: butt; stroke-dashoffset: 0; stroke-linejoin: miter; stroke-miterlimit: 4; fill: rgb(0,0,0); fill-rule: evenodd; opacity: 1;" vector-effect="non-scaling-stroke"  transform=" translate(-115.18, -71.35)" d="M 177.350177 57.2402 C 177.350177 57.2402 178.830177 56.1722 167.807177 60.3812 C 163.793177 61.9132 158.133177 63.5122 150.159177 65.0242 C 120.282177 70.6902 73.4081768 80.9932 58.9851768 83.0532 C 44.5611768 85.1142 56.4091768 88.2042 89.3761768 81.5082 C 122.343177 74.8112 161.588177 65.8282 163.350177 65.2402 C 166.350177 64.2402 175.350177 61.2402 177.350177 57.2402" stroke-linecap="round" />
</g>
<g transform="matrix(-0.25 -0.76 -0.76 0.25 873.54 814.74)" id="-jJa9mAOX67Qc_HDgiKT2"  >
<path style="stroke: none; stroke-width: 1; stroke-dasharray: none; stroke-linecap: butt; stroke-dashoffset: 0; stroke-linejoin: miter; stroke-miterlimit: 4; fill: rgb(0,0,0); fill-rule: evenodd; opacity: 1;" vector-effect="non-scaling-stroke"  transform=" translate(-110.49, -99.44)" d="M 116.349877 99.2405 C 103.608877 102.4255 82.3498768 107.2405 80.1038768 107.7785 C 76.0968768 108.7395 68.2558768 110.3545 68.2558768 110.3545 C 68.2558768 110.3545 68.3498768 113.2405 92.3498768 108.2405 C 98.3048768 107.0005 109.349877 105.2405 116.349877 103.2405 C 122.788877 101.4005 146.037877 95.4165 149.128877 92.8405 C 152.218877 90.2645 152.733877 87.6895 152.733877 87.6895 C 152.733877 87.6895 128.349877 96.2405 116.349877 99.2405 Z" stroke-linecap="round" />
</g>
<g transform="matrix(-0.8 0 0 0.8 594.3 1107.24)" id="JbjtcU4fZ1dkP66G5w-Za"  >
<path style="stroke: none; stroke-width: 1; stroke-dasharray: none; stroke-linecap: butt; stroke-dashoffset: 0; stroke-linejoin: miter; stroke-miterlimit: 4; fill: rgb(245,193,182); fill-rule: evenodd; opacity: 1;" vector-effect="non-scaling-stroke"  transform=" translate(-571.31, -331.03)" d="M 583.8821 306.5582 C 583.8821 306.5582 541.1281 325.1022 535.9771 317.8902 C 530.8261 310.6792 575.1251 355.4942 575.1251 355.4942 L 607.0621 337.4642 L 583.8821 306.5582 Z" stroke-linecap="round" />
</g>
<g transform="matrix(-0.8 0 0 0.8 594.3 1107.24)" id="wayYBLNcPDQXfb__uELlW"  >
<path style="stroke: rgb(0,0,0); stroke-width: 3; stroke-dasharray: none; stroke-linecap: butt; stroke-dashoffset: 0; stroke-linejoin: miter; stroke-miterlimit: 4; fill: none; fill-rule: evenodd; opacity: 1;" vector-effect="non-scaling-stroke"  transform=" translate(-571.31, -331.03)" d="M 583.8821 306.5582 C 583.8821 306.5582 541.1281 325.1022 535.9771 317.8902 C 530.8261 310.6792 575.1251 355.4942 575.1251 355.4942 L 607.0621 337.4642 L 583.8821 306.5582 Z" stroke-linecap="round" />
</g>
<g transform="matrix(-0.8 0 0 0.8 783.78 1155.75)" id="Ht86gWmFdDaT_qvEoKN5P"  >
<path style="stroke: none; stroke-width: 1; stroke-dasharray: none; stroke-linecap: butt; stroke-dashoffset: 0; stroke-linejoin: miter; stroke-miterlimit: 4; fill: rgb(240,236,236); fill-rule: evenodd; opacity: 1;" vector-effect="non-scaling-stroke"  transform=" translate(-334.45, -391.65)" d="M 241.3362 329.2232 C 241.3362 329.2232 178.4932 365.7952 228.4582 422.9722 C 278.4232 480.1492 455.1052 441.0012 455.1052 441.0012 L 459.7412 418.3362 C 459.7412 418.3362 282.0292 332.3142 241.3362 329.2232" stroke-linecap="round" />
</g>
<g transform="matrix(-0.8 0 0 0.8 861.63 1148.15)" id="Y7g6gIskFezFOHSZkbjGf"  >
<path style="stroke: none; stroke-width: 1; stroke-dasharray: none; stroke-linecap: butt; stroke-dashoffset: 0; stroke-linejoin: miter; stroke-miterlimit: 4; fill: rgb(224,211,204); fill-rule: evenodd; opacity: 1;" vector-effect="non-scaling-stroke"  transform=" translate(-237.14, -382.16)" d="M 241.3362 329.2232 C 241.3362 329.2232 216.6112 334.3732 208.8842 362.7042 C 201.1582 391.0362 218.1892 424.0292 243.1552 435.0902 C 243.1552 435.0902 211.2912 364.3752 267.2642 335.2092 L 241.3362 329.2232 Z" stroke-linecap="round" />
</g>
<g transform="matrix(-0.8 0 0 0.8 760.98 1184.21)" id="Tp4t_hxqoYgRWYokK0ZHP"  >
<path style="stroke: none; stroke-width: 1; stroke-dasharray: none; stroke-linecap: butt; stroke-dashoffset: 0; stroke-linejoin: miter; stroke-miterlimit: 4; fill: rgb(231,218,218); fill-rule: evenodd; opacity: 1;" vector-effect="non-scaling-stroke"  transform=" translate(-362.95, -427.23)" d="M 261.5242 443.1266 C 261.5242 443.1266 284.0902 397.2176 294.3922 398.2476 C 304.6942 399.2776 416.2152 405.0666 427.4192 402.9446 L 464.3772 417.8206 L 457.8422 441.4046 C 457.8422 441.4046 320.3452 473.5836 261.5242 443.1266" stroke-linecap="round" />
</g>
<g transform="matrix(-0.8 0 0 0.8 775.49 1148.33)" id="26-TdOmhTiQ8j-twZx924"  >
<path style="stroke: none; stroke-width: 1; stroke-dasharray: none; stroke-linecap: butt; stroke-dashoffset: 0; stroke-linejoin: miter; stroke-miterlimit: 4; fill: rgb(249,249,249); fill-rule: evenodd; opacity: 1;" vector-effect="non-scaling-stroke"  transform=" translate(-344.82, -382.38)" d="M 291.8167 356.524 C 291.8167 356.524 283.5747 416.276 295.4217 416.276 C 307.2697 416.276 310.3607 349.312 312.4207 372.492 C 314.4817 395.671 316.0267 425.033 323.7537 416.276 C 331.4797 407.519 315.5117 342.616 322.2077 360.644 C 328.9037 378.673 333.0247 412.67 343.8427 412.155 C 354.6597 411.64 339.7217 377.128 345.3877 376.097 C 351.0537 375.067 362.3857 420.912 372.1727 415.246 C 381.9607 409.58 363.9317 371.977 374.2337 385.884 C 384.5357 399.793 387.6267 416.276 396.8987 414.215 C 406.1707 412.155 395.8677 394.127 390.2017 385.37 C 384.5357 376.613 297.4827 343.13 294.9067 347.252 C 292.3317 351.373 291.8167 356.524 291.8167 356.524" stroke-linecap="round" />
</g>
<g transform="matrix(-0.8 0 0 0.8 594.3 1014.68)" id="FRCu7IJu9XSTIv1PhVYCh"  >
<path style="stroke: none; stroke-width: 1; stroke-dasharray: none; stroke-linecap: butt; stroke-dashoffset: 0; stroke-linejoin: miter; stroke-miterlimit: 4; fill: rgb(22,52,93); fill-rule: evenodd; opacity: 1;" vector-effect="non-scaling-stroke"  transform=" translate(-570.76, -211.5)" d="M 424.7141 414.4617 C 424.7141 414.4617 216.6111 354.1937 119.7711 277.4427 C 22.9311 200.6917 -33.2159 126.0017 21.3851 42.0397 C 75.9861 -41.9233 204.2481 21.9497 266.0611 49.2507 C 327.8741 76.5517 530.5701 115.1607 627.2801 114.9157 C 723.9911 114.6697 853.7981 107.4577 921.2771 87.3687 C 988.7561 67.2797 1096.4131 36.8887 1129.3811 118.7907 C 1162.3471 200.6917 1123.7141 281.0497 1067.0521 308.3497 C 1010.3901 335.6497 835.7691 394.3727 746.1411 388.7067 L 656.5121 383.0397 C 656.5121 383.0397 617.8791 340.2867 628.1811 277.9587 L 574.0951 317.1067 C 574.0951 317.1067 543.1891 316.5917 531.8561 312.4707 C 520.5241 308.3497 457.6811 459.2757 424.7141 414.4617" stroke-linecap="round" />
</g>
<g transform="matrix(-0.8 0 0 0.8 582.3 1163.38)" id="AaWZ_lspSuEI9pGO0oGye"  >
<path style="stroke: none; stroke-width: 1; stroke-dasharray: none; stroke-linecap: butt; stroke-dashoffset: 0; stroke-linejoin: miter; stroke-miterlimit: 4; fill: rgb(245,193,182); fill-rule: evenodd; opacity: 1;" vector-effect="non-scaling-stroke"  transform=" translate(-586.3, -401.2)" d="M 479.8304 422.4576 C 479.8304 422.4576 570.4894 455.9386 592.1234 469.8476 C 613.7584 483.7556 658.5724 495.6026 680.2074 480.6646 C 701.8414 465.7266 688.9644 391.5516 688.9644 391.5516 C 688.9644 391.5516 616.3334 375.0666 608.0924 363.7346 C 599.8504 352.4026 533.9164 314.8006 533.9164 314.8006 L 479.8304 422.4576 Z" stroke-linecap="round" />
</g>
<g transform="matrix(-0.8 0 0 0.8 395.31 1195.43)" id="4rWN13cgp0_wNh2puqZFP"  >
<path style="stroke: none; stroke-width: 1; stroke-dasharray: none; stroke-linecap: butt; stroke-dashoffset: 0; stroke-linejoin: miter; stroke-miterlimit: 4; fill: rgb(240,236,236); fill-rule: evenodd; opacity: 1;" vector-effect="non-scaling-stroke"  transform=" translate(-820.04, -441.26)" d="M 681.1965 397.4195 C 681.1965 397.4195 685.8735 385.3695 700.2965 387.9445 C 714.7195 390.5215 849.1625 375.5825 887.7955 364.7655 C 926.4275 353.9475 1008.3305 430.6985 972.7875 484.7845 C 937.2455 538.8715 888.8255 513.1155 845.0415 509.5105 C 801.2575 505.9045 716.2645 518.2675 697.2055 512.0855 C 678.1465 505.9045 659.0875 494.5715 658.5725 481.1795 C 658.0575 467.7865 681.1965 397.4195 681.1965 397.4195" stroke-linecap="round" />
</g>
<g transform="matrix(-0.8 0 0 0.8 309.94 1190.49)" id="r5Mp37HLncC2uFuyEFFm7"  >
<path style="stroke: none; stroke-width: 1; stroke-dasharray: none; stroke-linecap: butt; stroke-dashoffset: 0; stroke-linejoin: miter; stroke-miterlimit: 4; fill: rgb(224,211,204); fill-rule: evenodd; opacity: 1;" vector-effect="non-scaling-stroke"  transform=" translate(-926.75, -435.08)" d="M 877.7664 371.8189 C 877.7664 371.8189 934.6694 399.7929 944.9724 438.4249 C 955.2744 477.0579 950.4914 507.9839 950.4914 507.9839 C 950.4914 507.9839 1004.4904 482.5399 973.7014 422.1069 C 942.9114 361.6739 894.5234 356.7079 877.7664 365.6299 C 861.0094 374.5519 877.7664 371.8189 877.7664 371.8189" stroke-linecap="round" />
</g>
<g transform="matrix(-0.8 0 0 0.8 421.22 1197.95)" id="CwcX8l6utOVALHrAptEfF"  >
<path style="stroke: none; stroke-width: 1; stroke-dasharray: none; stroke-linecap: butt; stroke-dashoffset: 0; stroke-linejoin: miter; stroke-miterlimit: 4; fill: rgb(238,223,217); fill-rule: evenodd; opacity: 1;" vector-effect="non-scaling-stroke"  transform=" translate(-787.65, -444.4)" d="M 871.4646 370.5123 C 871.4646 370.5123 848.1316 407.5193 845.0416 434.3043 C 845.0416 434.3043 847.1016 439.4553 821.3466 438.9413 C 795.5906 438.4253 675.5176 412.0763 675.5176 412.0763 C 675.5176 412.0763 649.6886 473.9503 659.0246 489.9273 C 668.3596 505.9053 845.0416 475.5133 845.0416 475.5133 C 845.0416 475.5133 852.2526 471.3923 856.8886 474.9983 C 861.5246 478.6043 885.4606 511.6303 918.3066 518.2963 C 918.3066 518.2963 867.1906 490.9663 863.0696 454.9083 C 858.9486 418.8513 871.4646 370.5123 871.4646 370.5123" stroke-linecap="round" />
</g>
<g transform="matrix(-0.8 0 0 0.8 489.6 1203.11)" id="2wvjLwtl7BhqJM9VcheTK"  >
<path style="stroke: none; stroke-width: 1; stroke-dasharray: none; stroke-linecap: butt; stroke-dashoffset: 0; stroke-linejoin: miter; stroke-miterlimit: 4; fill: rgb(255,255,255); fill-rule: evenodd; opacity: 1;" vector-effect="non-scaling-stroke"  transform=" translate(-702.18, -450.85)" d="M 701.8416 408.0348 C 701.8416 408.0348 703.3866 443.0608 696.6906 462.6358 C 689.9936 482.2098 684.4326 499.2828 695.9696 497.1848 C 707.5076 495.0878 719.8706 417.3058 713.1746 410.6098 C 706.4776 403.9138 702.3566 401.8528 701.8416 408.0348" stroke-linecap="round" />
</g>
<g transform="matrix(-0.8 0 0 0.8 474.35 1206.4)" id="OPm-bE42dhvAu30R6xs1d"  >
<path style="stroke: none; stroke-width: 1; stroke-dasharray: none; stroke-linecap: butt; stroke-dashoffset: 0; stroke-linejoin: miter; stroke-miterlimit: 4; fill: rgb(255,255,255); fill-rule: evenodd; opacity: 1;" vector-effect="non-scaling-stroke"  transform=" translate(-721.24, -454.97)" d="M 720.9006 412.1549 C 720.9006 412.1549 722.4456 447.1819 715.7496 466.7569 C 709.0526 486.3309 703.4916 503.4029 715.0286 501.3049 C 726.5666 499.2089 738.9296 421.4269 732.2326 414.7309 C 725.5366 408.0349 721.4156 405.9739 720.9006 412.1549" stroke-linecap="round" />
</g>
<g transform="matrix(-0.8 0 0 0.8 420.37 1204.46)" id="swtawyHiM3DmF6J_PVckQ"  >
<path style="stroke: none; stroke-width: 1; stroke-dasharray: none; stroke-linecap: butt; stroke-dashoffset: 0; stroke-linejoin: miter; stroke-miterlimit: 4; fill: rgb(255,255,255); fill-rule: evenodd; opacity: 1;" vector-effect="non-scaling-stroke"  transform=" translate(-788.72, -452.55)" d="M 788.3796 413.3853 C 788.3796 413.3853 789.9246 445.4233 783.2286 463.3263 C 776.5316 481.2303 770.9706 496.8463 782.5076 494.9273 C 794.0456 493.0083 806.4086 421.8653 799.7116 415.7403 C 793.0156 409.6153 788.8946 407.7313 788.3796 413.3853" stroke-linecap="round" />
</g>
<g transform="matrix(-0.8 0 0 0.8 399.76 1205.49)" id="3Cxaj3gvgMGtKQczRm2Lq"  >
<path style="stroke: none; stroke-width: 1; stroke-dasharray: none; stroke-linecap: butt; stroke-dashoffset: 0; stroke-linejoin: miter; stroke-miterlimit: 4; fill: rgb(255,255,255); fill-rule: evenodd; opacity: 1;" vector-effect="non-scaling-stroke"  transform=" translate(-814.47, -453.83)" d="M 814.135 417.2809 C 814.135 417.2809 815.68 447.1849 808.984 463.8959 C 802.287 480.6079 796.726 495.1829 808.263 493.3929 C 819.801 491.6019 832.164 425.1969 825.467 419.4799 C 818.771 413.7619 814.65 412.0039 814.135 417.2809" stroke-linecap="round" />
</g>
<g transform="matrix(-0.8 0 0 0.8 379.97 1203.79)" id="yRNC1ZuNU9JpBLeQfdPKk"  >
<path style="stroke: none; stroke-width: 1; stroke-dasharray: none; stroke-linecap: butt; stroke-dashoffset: 0; stroke-linejoin: miter; stroke-miterlimit: 4; fill: rgb(255,255,255); fill-rule: evenodd; opacity: 1;" vector-effect="non-scaling-stroke"  transform=" translate(-839.22, -451.7)" d="M 832.6423 415.1246 C 832.6423 415.1246 838.4183 444.5056 834.1633 461.9986 C 829.9083 479.4916 826.4733 494.7096 837.6393 491.2986 C 848.8053 487.8876 851.6123 420.3986 844.1723 415.6906 C 836.7313 410.9826 832.4023 409.8266 832.6423 415.1246" stroke-linecap="round" />
</g>
<g transform="matrix(-0.8 0 0 0.8 459.04 1207.82)" id="hwCcKbfXD13WFupQtPkr0"  >
<path style="stroke: none; stroke-width: 1; stroke-dasharray: none; stroke-linecap: butt; stroke-dashoffset: 0; stroke-linejoin: miter; stroke-miterlimit: 4; fill: rgb(255,255,255); fill-rule: evenodd; opacity: 1;" vector-effect="non-scaling-stroke"  transform=" translate(-740.38, -456.74)" d="M 744.8552 414.4049 C 744.8552 414.4049 742.8102 449.4069 734.1472 468.1939 C 725.4832 486.9799 718.2052 503.3939 729.8972 502.4879 C 741.5882 501.5819 761.8412 425.4719 755.8652 418.1269 C 749.8882 410.7799 746.0002 408.3089 744.8552 414.4049" stroke-linecap="round" />
</g>
<g transform="matrix(-0.8 0 0 0.8 440.63 1207.61)" id="hkCvKOdzpzvSnz605Mg2y"  >
<path style="stroke: none; stroke-width: 1; stroke-dasharray: none; stroke-linecap: butt; stroke-dashoffset: 0; stroke-linejoin: miter; stroke-miterlimit: 4; fill: rgb(255,255,255); fill-rule: evenodd; opacity: 1;" vector-effect="non-scaling-stroke"  transform=" translate(-763.39, -456.49)" d="M 754.9553 413.7564 C 754.9553 413.7564 761.9163 448.1194 758.3383 468.4954 C 754.7593 488.8714 751.9143 506.6014 762.9873 502.7384 C 774.0593 498.8764 774.2043 420.1184 766.5503 414.5424 C 758.8953 408.9664 754.5053 407.5694 754.9553 413.7564" stroke-linecap="round" />
</g>
<g transform="matrix(0.72 -0.09 0.09 0.72 611.26 1021.18)" id="esChzRKIHlQRI8TU7LSCC"  >
<path style="stroke: none; stroke-width: 1; stroke-dasharray: none; stroke-linecap: butt; stroke-dashoffset: 0; stroke-linejoin: miter; stroke-miterlimit: 4; fill: rgb(0,0,0); fill-rule: nonzero; opacity: 1;" vector-effect="non-scaling-stroke"  transform=" translate(-539.33, -194.71)" d="M 222.06454 67.35702 L 506.395 291.63800000000003 L 567.949 317.564 L 633.12662 276.96614 L 856.9416200000001 135.37014 L 859.0801700000001 138.75046 L 635.25331 280.3539 L 568.30613 322.05453 L 504.34392 295.11433 L 219.58725000000004 70.49757 z" stroke-linecap="round" />
</g>
<g transform="matrix(-0.8 0 0 0.8 507.78 1200.51)" id="Uy97LHVEixuTdCdEtrdUJ"  >
<path style="stroke: none; stroke-width: 1; stroke-dasharray: none; stroke-linecap: butt; stroke-dashoffset: 0; stroke-linejoin: miter; stroke-miterlimit: 4; fill: rgb(255,255,255); fill-rule: evenodd; opacity: 1;" vector-effect="non-scaling-stroke"  transform=" translate(-679.46, -447.61)" d="M 677.7112 409.7262 C 677.7112 409.7262 710.0832 416.7912 703.3872 455.9392 C 696.6902 495.0872 656.0132 484.0552 656.0132 484.0552 C 656.0132 484.0552 646.3702 419.6602 677.7112 409.7262" stroke-linecap="round" />
</g>
<g transform="matrix(-0.8 0 0 0.8 558.94 1098.65)" id="louE4LVf4k9BvEI4T92Ht"  >
<path style="stroke: none; stroke-width: 1; stroke-dasharray: none; stroke-linecap: butt; stroke-dashoffset: 0; stroke-linejoin: miter; stroke-miterlimit: 4; fill: rgb(70,103,175); fill-rule: evenodd; opacity: 1;" vector-effect="non-scaling-stroke"  transform=" translate(-615.5, -320.28)" d="M 640.0286 255.5631 C 640.0286 255.5631 593.6696 268.4401 580.7916 290.5901 C 567.9136 312.7401 572.0346 350.8571 610.1526 366.8261 C 648.2706 382.7941 663.7236 396.1871 653.9366 370.9471 C 644.1496 345.7071 626.1206 299.3461 640.0286 255.5631" stroke-linecap="round" />
</g>
<g transform="matrix(-0.8 0 0 0.8 656.51 1140.91)" id="AfzNmWVGql6grPnRGhX3d"  >
<path style="stroke: none; stroke-width: 1; stroke-dasharray: none; stroke-linecap: butt; stroke-dashoffset: 0; stroke-linejoin: miter; stroke-miterlimit: 4; fill: rgb(70,103,175); fill-rule: evenodd; opacity: 1;" vector-effect="non-scaling-stroke"  transform=" translate(-493.53, -373.1)" d="M 505.0706 284.9234 C 505.0706 284.9234 500.4346 336.4344 472.1036 376.6124 C 443.7736 416.7914 418.5326 420.9114 427.8046 430.6984 C 437.0766 440.4854 451.4996 445.1214 460.7716 457.4854 C 470.0436 469.8474 469.5286 469.3314 491.1626 443.5764 C 512.7976 417.8204 560.1876 360.6444 561.2176 309.6494 C 561.2176 309.6494 509.1916 267.9254 505.0706 284.9234" stroke-linecap="round" />
</g>
<g transform="matrix(0.79 0.14 -0.14 0.79 616.27 348.11)" id="WS-7_XL_oDP8Ky0VeyXcF"  >
<path style="stroke: none; stroke-width: 1; stroke-dasharray: none; stroke-linecap: butt; stroke-dashoffset: 0; stroke-linejoin: miter; stroke-miterlimit: 4; fill: rgb(0,0,0); fill-rule: evenodd; opacity: 1;" vector-effect="non-scaling-stroke"  transform=" translate(-61.17, -130.1)" d="M 42.1189 122.5775 C 42.1189 122.5775 58.2689 147.5775 80.2119 133.1175 L 42.1189 122.5775 Z" stroke-linecap="round" />
</g>
<g transform="matrix(0.76 -0.26 0.26 0.76 597.95 261.11)" id="h7ErzCHYvptgwxnW2Butl"  >
<path style="stroke: none; stroke-width: 1; stroke-dasharray: none; stroke-linecap: butt; stroke-dashoffset: 0; stroke-linejoin: miter; stroke-miterlimit: 4; fill: rgb(0,0,0); fill-rule: evenodd; opacity: 1;" vector-effect="non-scaling-stroke"  transform=" translate(-38.26, -20.83)" d="M 2 22.9756 C 2 22.9756 17.26 13.7656 28.897 11.6706 C 36.082 10.3776 75.756 15.9766 74.492 24.0666 C 73.26 31.9486 69.346 30.8876 53.686 28.1966 C 38.026 25.5046 30.873 23.7096 21.82 24.6886 C 12.766 25.6666 2.245 27.6246 2 22.9756" stroke-linecap="round" />
</g>
<g transform="matrix(0.71 0.38 -0.38 0.71 677.34 263.19)" id="nu2PYUXh-R452htyAjxrx"  >
<path style="stroke: none; stroke-width: 1; stroke-dasharray: none; stroke-linecap: butt; stroke-dashoffset: 0; stroke-linejoin: miter; stroke-miterlimit: 4; fill: rgb(0,0,0); fill-rule: evenodd; opacity: 1;" vector-effect="non-scaling-stroke"  transform=" translate(-137.49, -23.95)" d="M 163.977136 33.4844194 C 163.977136 33.4844194 161.362136 25.4834194 157.059136 21.6384194 C 152.756136 17.7954194 120.372136 9.49541944 114.895136 14.6284194 C 106.193136 22.7844194 112.446136 25.7074194 129.915136 27.5194194 C 143.964136 28.9774194 149.514136 29.4634194 156.025136 32.2914194 C 164.921136 36.1554194 163.780136 34.9744194 163.977136 33.4844194" stroke-linecap="round" />
</g>
<g transform="matrix(0.8 0 0 0.8 636.39 295.1)" id="yi9j3734PE1eDA2kcCwwJ"  >
<path style="stroke: none; stroke-width: 1; stroke-dasharray: none; stroke-linecap: butt; stroke-dashoffset: 0; stroke-linejoin: miter; stroke-miterlimit: 4; fill: rgb(0,0,0); fill-rule: nonzero; opacity: 1;" vector-effect="non-scaling-stroke"  transform=" translate(-84.31, -40.84)" d="M 98.9388073 0.515726772 L 102.747593 1.73767323 L 102.375135 2.93095324 C 102.075892 3.9043293 101.742122 5.01790967 101.382468 6.25291663 C 100.354215 9.78380887 99.3257634 13.5761133 98.3662837 17.478955 C 97.2996742 21.8175645 96.3854385 26.0250163 95.6702376 29.9976992 L 95.4631649 31.1740325 C 93.7257688 41.2776329 93.4803733 48.9926374 95.0328764 53.1417647 L 95.1244408 53.3771728 C 104.002358 75.340079 91.9464166 86.4779502 66.6424816 78.6786942 L 65.8716485 78.4365483 L 67.0907515 74.6268517 C 89.8846425 81.9208968 99.0260452 73.7026714 91.4159925 54.8763096 C 89.3210345 49.6942966 89.6433125 40.8993486 91.7335247 29.288974 C 92.4647551 25.2272527 93.3964651 20.9393815 94.4819426 16.5240234 C 95.3476055 13.0027971 96.2678852 9.57278889 97.1943734 6.33814281 L 97.5420029 5.13451153 C 97.7507758 4.41761123 97.9510908 3.74056192 98.1413397 3.10683734 L 98.6297394 1.50244969 L 98.9388073 0.515726772 Z" stroke-linecap="round" />
</g>
<g transform="matrix(0.8 0 0 0.8 596.79 391.06)" id="YNCb5my8NpCLk2L4XXl1d"  >
<path style="stroke: none; stroke-width: 1; stroke-dasharray: none; stroke-linecap: butt; stroke-dashoffset: 0; stroke-linejoin: miter; stroke-miterlimit: 4; fill: rgb(0,0,0); fill-rule: nonzero; opacity: 1;" vector-effect="non-scaling-stroke"  transform=" translate(-34.81, -160.79)" d="M 0.1850015 153.534088 L 2.1419985 150.045512 L 2.85620174 150.434727 L 3.51128674 150.782909 C 4.50308988 151.305335 5.6321651 151.880908 6.88714027 152.498006 L 7.43266178 152.764985 C 11.6537624 154.821142 16.3218862 156.878362 21.3004212 158.797989 C 32.7483158 163.212076 44.0600582 166.224884 54.584272 167.202241 C 59.3535856 167.645156 63.8735301 167.656119 68.1063644 167.201856 L 68.9490919 167.10479 L 69.4379081 171.07481 C 64.6629697 171.662733 59.5745075 171.682884 54.2143935 171.185103 C 43.2765951 170.169337 31.6251616 167.066055 19.8613669 162.530163 C 14.7706849 160.567294 9.99959664 158.464698 5.68097489 156.361037 L 4.04785364 155.55429 C 3.35348222 155.206284 2.70158001 154.872883 2.09423579 154.556252 L 0.962732129 153.958187 L 0.1850015 153.534088 Z" stroke-linecap="round" />
</g>
<g transform="matrix(0.8 0 0 0.8 600.53 279.75)" id="iRxGwBf4iAqQqwNfsGyrS"  >
<path style="stroke: none; stroke-width: 1; stroke-dasharray: none; stroke-linecap: butt; stroke-dashoffset: 0; stroke-linejoin: miter; stroke-miterlimit: 4; fill: rgb(0,0,0); fill-rule: evenodd; opacity: 1;" vector-effect="non-scaling-stroke"  transform=" translate(-64.49, -73.65)" d="M 78.6362 79.1289 C 77.9112 79.1289 77.1852 78.8679 76.6092 78.3389 C 76.5712 78.3049 71.6242 73.9129 64.4832 74.1789 C 57.0942 74.4519 52.1892 78.0669 52.1402 78.1029 C 50.8182 79.0929 48.9392 78.8329 47.9442 77.5169 C 46.9472 76.1999 47.1962 74.3309 48.5082 73.3279 C 48.7642 73.1319 54.8862 68.5299 64.2612 68.1829 C 73.9102 67.8359 80.3942 73.6699 80.6652 73.9189 C 81.8862 75.0389 81.9682 76.9369 80.8472 78.1569 C 80.2562 78.8019 79.4472 79.1289 78.6362 79.1289" stroke-linecap="round" />
</g>
<g transform="matrix(0.8 0 0 0.8 667.82 287.06)" id="qunbWQ2g4VWEvBGmLtXxQ"  >
<path style="stroke: none; stroke-width: 1; stroke-dasharray: none; stroke-linecap: butt; stroke-dashoffset: 0; stroke-linejoin: miter; stroke-miterlimit: 4; fill: rgb(0,0,0); fill-rule: evenodd; opacity: 1;" vector-effect="non-scaling-stroke"  transform=" translate(-148.6, -82.79)" d="M 162.7539 88.2724 C 162.0289 88.2724 161.3029 88.0114 160.7269 87.4824 C 160.6889 87.4484 155.7419 83.0504 148.5999 83.3224 C 141.2309 83.5944 136.3169 87.2014 136.2699 87.2374 C 134.9529 88.2444 133.0699 87.9924 132.0639 86.6764 C 131.0579 85.3604 131.3089 83.4774 132.6249 82.4714 C 132.8809 82.2754 139.0039 77.6724 148.3789 77.3264 C 158.0239 76.9814 164.5119 82.8134 164.7829 83.0624 C 166.0039 84.1824 166.0859 86.0804 164.9649 87.3004 C 164.3739 87.9454 163.5649 88.2724 162.7539 88.2724" stroke-linecap="round" />
</g>
<g transform="matrix(0.8 0 0 0.8 620.34 191.97)" id="63iRvrkwVzohWDkea70PK"  >
<path style="stroke: none; stroke-width: 1; stroke-dasharray: none; stroke-linecap: butt; stroke-dashoffset: 0; stroke-linejoin: miter; stroke-miterlimit: 4; fill: rgb(142,78,23); fill-rule: evenodd; opacity: 1;" vector-effect="non-scaling-stroke"  transform=" translate(-128.24, -93.93)" d="M 9.0688 167.6793 C 9.0688 167.6793 12.1858 169.5373 11.0758 187.8553 C 11.0758 187.8553 19.4018 179.5293 21.6218 169.5373 C 23.8418 159.5463 38.8288 130.6823 51.5958 122.9103 C 64.3628 115.1403 84.3458 115.6953 96.0018 97.9333 L 107.6588 80.1703 C 107.6588 80.1703 182.0388 85.1653 214.2328 109.0343 C 214.2328 109.0343 229.2198 115.6953 225.8898 180.6393 C 225.8898 180.6393 231.9958 145.6693 233.1058 127.9073 C 234.2158 110.1443 241.9868 138.4533 238.6568 153.9953 C 238.6568 153.9953 257.6618 137.7753 256.4188 102.9283 C 254.7288 55.5333 231.6968 41.8383 216.4538 30.7693 C 198.4878 17.7223 145.4818 -11.0527 112.1778 4.4893 C 78.8728 20.0313 80.4598 23.5523 64.9178 29.6583 C 49.3758 35.7643 29.9478 32.9893 13.2958 45.2003 C -3.3562 57.4123 0.3518 161.1243 0.3518 161.1243 C 0.3518 161.1243 6.9378 163.7943 9.0688 167.6793" stroke-linecap="round" />
</g>
</svg>